# xmcd CD database file
#
# Track frame offsets:
#	150
#	25537
#	46345
#
# Disc length: 1081 seconds
#
# Revision: 0
# Processed by: cddbd v1.5.1PL0 Copyright (c) Steve Scherf et al.
# Submitted via: CDex 1.51
#
DISCID=17043703
DTITLE=鈴木晃二 - 翼のもつ自由
DYEAR=2000
DGENRE=ロック (日本)
TTITLE0=翼のもつ自由
TTITLE1=砂漠(remix ver.)
TTITLE2=部屋の明り
EXTD=YEAR: 2000/10/18
EXTT0=
EXTT1=
EXTT2=
PLAYORDER=
